<?xml version="1.0" encoding="UTF-8" standalone="no"?>
<svg
   version="1.1"
   id="Layer_1"
   x="0px"
   y="0px"
   viewBox="0 0 122.88 97.05"
   style="enable-background:new 0 0 122.88 97.05"
   xml:space="preserve"
   sodipodi:docname="module_image.svg"
   inkscape:version="1.1.2 (0a00cf5339, 2022-02-04)"
   inkscape:export-filename="/home/marc/www/hhcore/protected/modules/menu-manager/resources/module_image.png"
   inkscape:export-xdpi="347.45163"
   inkscape:export-ydpi="347.45163"
   xmlns:inkscape="http://www.inkscape.org/namespaces/inkscape"
   xmlns:sodipodi="http://sodipodi.sourceforge.net/DTD/sodipodi-0.dtd"
   xmlns:xlink="http://www.w3.org/1999/xlink"
   xmlns="http://www.w3.org/2000/svg"
   xmlns:svg="http://www.w3.org/2000/svg"><defs
   id="defs9"><linearGradient
     inkscape:collect="always"
     id="linearGradient1095"><stop
       style="stop-color:#ce2c8d;stop-opacity:1;"
       offset="0"
       id="stop1091" /><stop
       style="stop-color:#ffffff;stop-opacity:1"
       offset="1"
       id="stop1093" /></linearGradient><linearGradient
     inkscape:collect="always"
     xlink:href="#linearGradient1095"
     id="linearGradient1000"
     gradientUnits="userSpaceOnUse"
     x1="65.836899"
     y1="43.841801"
     x2="-4.2705827"
     y2="-88.977081" /></defs>
    <sodipodi:namedview
   id="namedview7"
   pagecolor="#ffffff"
   bordercolor="#666666"
   borderopacity="1.0"
   inkscape:pageshadow="2"
   inkscape:pageopacity="0.0"
   inkscape:pagecheckerboard="0"
   showgrid="false"
   inkscape:zoom="0.68521379"
   inkscape:cx="182.42482"
   inkscape:cy="6.5672934"
   inkscape:window-width="1320"
   inkscape:window-height="704"
   inkscape:window-x="46"
   inkscape:window-y="27"
   inkscape:window-maximized="1"
   inkscape:current-layer="g6" />
    <g
   inkscape:groupmode="layer"
   id="layer2"
   inkscape:label="Layer 2"><path
   sodipodi:type="star"
   style="fill:url(#linearGradient1000);fill-opacity:1;stroke:#3bb0f4;stroke-width:0;stroke-miterlimit:4;stroke-dasharray:none"
   id="path859-7"
   inkscape:flatsided="true"
   sodipodi:sides="4"
   sodipodi:cx="63.406307"
   sodipodi:cy="46.851624"
   sodipodi:r1="86.300095"
   sodipodi:r2="61.02338"
   sodipodi:arg1="0.78539816"
   sodipodi:arg2="1.5707963"
   inkscape:rounded="0.15"
   inkscape:randomized="0"
   inkscape:export-filename="/home/marc/www/hhdev/protected/modules/module-model/resources/module_image.png"
   inkscape:export-xdpi="347.45001"
   inkscape:export-ydpi="347.45001"
   d="m 124.42969,107.87501 c -12.94501,12.94501 -109.10175,12.94501 -122.0467647,0 -12.9450143,-12.945018 -12.9450143,-109.1017541 -4e-7,-122.046768 12.9450141,-12.945015 109.1017451,-12.945015 122.0467651,-10e-7 12.94501,12.9450144 12.94501,109.10175 0,122.046769 z"
   transform="translate(-1.5204411,3.294316)" />
        <g
   id="g6"
   transform="matrix(0.9194288,0,0,0.9194288,10.653475,-6.9489403)"><path
     class="st0"
     d="m 10.972642,100.09422 c 5.867689,0 10.615886,4.75784 10.615886,10.61588 0,5.86769 -4.757848,10.61589 -10.615886,10.61589 -5.8676894,0 -10.61588598,-4.75785 -10.61588598,-10.61589 0,-5.85804 4.75784708,-10.61588 10.61588598,-10.61588 z M 50.396181,76.208475 H 15.711187 v 15.171066 c 0,2.615368 -2.123177,4.738541 -4.738545,4.738541 -2.6153683,0 -4.7385454,-2.123173 -4.7385454,-4.738541 V 72.888597 c 0,-0.24127 0.019299,-0.472889 0.048253,-0.704508 -0.038598,-0.23162 -0.048253,-0.463239 -0.048253,-0.704509 0,-2.615368 2.1231771,-4.738545 4.7385454,-4.738545 H 50.135609 L 49.981196,54.001972 C 49.035417,53.722099 48.089638,53.413273 47.163161,53.017589 46.236684,52.621906 45.339158,52.206922 44.489888,51.70508 l -2.943496,3.242671 c -0.540444,0.559747 -1.225652,0.849271 -1.997717,0.878223 -0.772064,0.02895 -1.476572,-0.212318 -2.055621,-0.72381 l -4.323561,-4.053338 c -0.579048,-0.569398 -0.907176,-1.216001 -0.936128,-1.997717 -0.02895,-0.801017 0.23162,-1.457271 0.772065,-2.007367 L 36.238449,43.55015 C 35.746258,42.691228 35.28302,41.793704 34.906639,40.876877 34.520606,39.96005 34.192479,39.004621 33.912606,38.02989 l -4.323561,0.173714 c -0.801017,0.02895 -1.476573,-0.231619 -2.065273,-0.772064 -0.579048,-0.569398 -0.878223,-1.225653 -0.907176,-1.968765 l -0.231618,-5.925594 c -0.02895,-0.801017 0.212317,-1.476573 0.743111,-2.065272 0.540446,-0.579048 1.196701,-0.878223 1.997717,-0.907176 l 4.719244,-0.183365 c 0.279873,-0.974731 0.588699,-1.920511 0.984382,-2.846988 0.395683,-0.926478 0.810668,-1.824002 1.312509,-2.673273 l -3.194416,-2.943495 c -0.579048,-0.540445 -0.907176,-1.216002 -0.936128,-1.997717 -0.02895,-0.772064 0.231619,-1.476573 0.772065,-2.065272 l 3.976131,-4.3235606 c 0.569397,-0.5790491 1.216002,-0.9071757 1.997716,-0.9361282 0.801018,-0.028953 1.457272,0.2412702 2.007368,0.772064 l 3.551497,3.2233688 c 0.810667,-0.48254 1.669589,-0.945779 2.596066,-1.331811 0.916826,-0.386032 1.872256,-0.714159 2.846988,-0.994032 L 49.585513,5.9409623 C 49.556563,5.1399458 49.817132,4.4643897 50.357578,3.87569 50.926975,3.2966418 51.58323,2.9974667 52.326342,2.9685143 L 58.251936,2.746546 c 0.801017,-0.028953 1.476573,0.2123177 2.065272,0.7431116 0.579049,0.5404452 0.878224,1.1967003 0.907176,1.9977168 l 0.183365,4.7192446 c 0.945779,0.279873 1.891558,0.588698 2.818036,0.984381 0.926477,0.366731 1.824002,0.810668 2.673273,1.31251 l 2.943495,-3.1847653 c 0.540445,-0.5790491 1.216002,-0.9071758 1.997717,-0.9361282 0.772064,-0.028953 1.476573,0.2316188 2.065272,0.772064 l 0.05791,0.048253 4.323561,3.9761315 c 0.579048,0.569398 0.907176,1.216002 0.936128,1.997717 0.02895,0.801017 -0.24127,1.457272 -0.772065,2.007367 l -3.223368,3.551496 c 0.48254,0.83962 0.945778,1.698542 1.331811,2.644321 0.386032,0.945778 0.71416,1.872256 0.994033,2.818035 l 4.323554,-0.173715 c 0.801022,-0.02895 1.476576,0.23162 2.06528,0.772064 0.579049,0.569398 0.878218,1.225653 0.907172,1.968764 l 0.231618,5.925595 c 0.02893,0.801017 -0.212319,1.476573 -0.743107,2.065273 -0.54045,0.579048 -1.196705,0.878223 -1.997718,0.907175 l -4.719243,0.183366 c -0.279874,0.945779 -0.588699,1.891557 -0.984382,2.818034 -0.395683,0.926478 -0.810668,1.824003 -1.31251,2.673274 l 3.24267,2.943495 c 0.559747,0.540445 0.849271,1.225652 0.878224,1.997716 0.02895,0.772065 -0.212318,1.447621 -0.723811,2.055622 l -4.053338,4.333212 c -0.511492,0.579048 -1.167747,0.897524 -1.968764,0.936128 -0.801017,0.02895 -1.476573,-0.23162 -2.03632,-0.772065 L 67.169286,51.59892 c -0.858922,0.492191 -1.756447,0.955429 -2.673273,1.331811 -0.916827,0.386032 -1.872256,0.714159 -2.846988,0.994032 l 0.144762,12.796968 h 39.066453 c 2.61537,0 4.73854,2.123177 4.73854,4.738545 0,0.241271 -0.0193,0.47289 -0.0483,0.704509 0.0386,0.23162 0.0483,0.463239 0.0483,0.70451 v 18.490942 c 0,2.615368 -2.12317,4.738546 -4.73854,4.738546 -2.615365,0 -4.738542,-2.123178 -4.738542,-4.738546 V 76.208475 H 61.764829 v 13.655889 c 0,3.136511 -2.547812,5.684324 -5.684324,5.684324 -3.136512,0 -5.684324,-2.547813 -5.684324,-5.684324 z m 4.844704,-55.752701 c 1.602033,-0.06756 3.107559,0.173714 4.574481,0.723809 1.437971,0.559748 2.702226,1.331812 3.812069,2.335495 1.08089,1.003684 1.959112,2.219685 2.625018,3.609401 0.675557,1.418669 1.022986,2.895242 1.090541,4.497275 0.06756,1.602034 -0.173714,3.10756 -0.72381,4.574482 -0.559747,1.437971 -1.341462,2.702226 -2.335494,3.812069 -1.003685,1.080889 -2.219686,1.959113 -3.609402,2.625018 -1.389716,0.665906 -2.895242,1.022986 -4.497275,1.090541 -1.602033,0.06755 -3.107559,-0.173714 -4.574481,-0.72381 -1.437971,-0.559747 -2.702226,-1.331811 -3.812069,-2.335495 -1.08089,-1.003684 -1.959113,-2.219685 -2.625018,-3.609401 -0.665906,-1.389716 -1.022986,-2.895241 -1.090541,-4.497275 -0.06756,-1.602034 0.173713,-3.107559 0.723809,-4.574481 0.559747,-1.437971 1.341463,-2.702227 2.335495,-3.812069 1.003685,-1.08089 2.219686,-1.959114 3.609401,-2.625019 1.409018,-0.675556 2.895242,-1.022985 4.497276,-1.09054 z m 45.609705,79.638446 c 5.86769,0 10.61589,4.75784 10.61589,10.61588 0,5.86769 -4.75785,10.61589 -10.61589,10.61589 -5.867694,0 -10.615882,-4.75785 -10.615882,-10.61589 -0.0097,-5.85804 4.748188,-10.61588 10.615882,-10.61588 z m -45.127165,0 c 5.86769,0 10.615885,4.75784 10.615885,10.61588 0,5.86769 -4.757847,10.61589 -10.615885,10.61589 -5.86769,0 -10.615885,-4.75785 -10.615885,-10.61589 0,-5.85804 4.748195,-10.61588 10.615885,-10.61588 z"
     id="path4"
     style="clip-rule:evenodd;fill-rule:evenodd;stroke-width:0.965079;fill:#ffffff" /></g></g>
    <g
   inkscape:groupmode="layer"
   id="layer1"
   inkscape:label="Layer 1" /></svg>
